# xmcd
#
# Track frame offsets:
#	150
#	15760
#	31818
#	48975
#	63848
#	82469
#	101049
#	120299
#	138942
#	159605
#	175954
#	193292
#	211397
#	233391
#	266639
#
# Disc length: 3622 seconds
#
# Revision: 1
# Processed by: cddbd v1.5.1PL2 Copyright (c) Steve Scherf et al.
# Submitted via: dBpowerAMP V4.0
#
DISCID=c30e240f
DTITLE=Rascal Flatts - Me and My Gang
DYEAR=2006
DGENRE=Country
TTITLE0=Stand
TTITLE1=What Hurts the Most
TTITLE2=Backwards
TTITLE3=I Feel Bad
TTITLE4=My Wish
TTITLE5=Pieces
TTITLE6=Yes I Do
TTITLE7=To Make Her Love Me
TTITLE8=Words I Couldn't Say
TTITLE9=Me and My Gang
TTITLE10=Cool Thing
TTITLE11=Ellsworth
TTITLE12=He Ain't the Leavin' Kind
TTITLE13=Fast Cars and Freedom (Live)
TTITLE14=DATA
EXTD=
EXTT0=
EXTT1=
EXTT2=
EXTT3=
EXTT4=
EXTT5=
EXTT6=
EXTT7=
EXTT8=
EXTT9=
EXTT10=
EXTT11=
EXTT12=
EXTT13=
EXTT14=
PLAYORDER=
